<svg width="74" height="68" viewBox="0 0 74 68" fill="none" xmlns="http://www.w3.org/2000/svg">
<g clip-path="url(#clip0_1914_178)">
<path d="M38.1835 36.4049C33.4794 36.3996 28.9694 34.4805 25.6427 31.0687C22.3159 27.6568 20.444 23.0308 20.4375 18.205C20.4427 13.3784 22.314 8.751 25.6409 5.33806C28.9678 1.92511 33.4786 0.00534363 38.1835 0C42.8876 0.00667907 47.3971 1.92698 50.7229 5.33978C54.0488 8.75258 55.9194 13.3793 55.9246 18.205C55.9181 23.0299 54.0469 27.6553 50.7212 31.067C47.3955 34.4787 42.8868 36.3982 38.1835 36.4049ZM38.1835 5.04713C34.7826 5.04981 31.5218 6.43695 29.117 8.90395C26.7122 11.3709 25.36 14.7162 25.3574 18.205C25.3613 21.693 26.714 25.0369 29.1187 27.5028C31.5234 29.9687 34.7835 31.3551 38.1835 31.3578C41.5827 31.3538 44.8416 29.9667 47.2452 27.501C49.6488 25.0352 51.0008 21.6922 51.0047 18.205C51.0021 14.717 49.6507 11.3725 47.2469 8.90567C44.8432 6.43882 41.5836 5.05114 38.1835 5.04713Z" fill="#F8FF31"/>
<path d="M17.254 36.4049C13.9179 36.4022 10.7191 35.0419 8.35964 32.6224C6.00019 30.2029 4.67285 26.9219 4.66895 23.4995C4.67285 20.0766 6.00003 16.795 8.35934 14.3747C10.7187 11.9544 13.9175 10.5929 17.254 10.5889V15.636C15.2219 15.6387 13.2737 16.468 11.8368 17.9421C10.3999 19.4162 9.59143 21.4148 9.58883 23.4995C9.59077 24.9576 9.98738 26.3865 10.7345 27.627C11.4815 28.8675 12.5497 29.8707 13.82 30.525C14.8368 31.023 15.6979 31.8022 16.3063 32.7751C16.9148 33.7479 17.2464 34.8757 17.2639 36.0314L17.254 36.4049Z" fill="#F8FF31"/>
<path d="M58.6104 36.4049V36.0314C58.6283 34.8758 58.9602 33.7483 59.5686 32.7755C60.177 31.8028 61.0378 31.0234 62.0543 30.525C63.3252 29.8717 64.394 28.8686 65.1412 27.6279C65.8884 26.3872 66.2845 24.9578 66.2854 23.4995C66.2847 22.4662 66.0857 21.4431 65.6997 20.4887C65.3136 19.5343 64.7481 18.6672 64.0354 17.937C63.3227 17.2068 62.4768 16.6278 61.5459 16.233C60.6151 15.8382 59.6176 15.6353 58.6104 15.636V10.5889C61.9461 10.5942 65.1436 11.9562 67.5019 14.3764C69.8601 16.7966 71.1866 20.0775 71.1905 23.4995C71.1866 26.921 69.8599 30.2011 67.5016 32.6205C65.1432 35.0399 61.9456 36.4009 58.6104 36.4049Z" fill="#F8FF31"/>
<path d="M45.5534 39.1456H26.538C25.2332 39.1456 23.9818 39.6774 23.0592 40.6239C22.1365 41.5704 21.6182 42.8542 21.6182 44.1928H45.5534C47.3658 44.1928 49.104 44.9313 50.3856 46.246C51.6672 47.5607 52.3871 49.3439 52.3871 51.2032V68H57.307V51.2032C57.3057 48.0057 56.067 44.9396 53.863 42.6786C51.6591 40.4177 48.6703 39.147 45.5534 39.1456Z" fill="#F8FF31"/>
<path d="M11.7585 39.1456C8.64083 39.1456 5.65073 40.4158 3.44572 42.6769C1.24071 44.938 0.00130448 48.0048 0 51.2032V62.8116H4.91989V51.2032C4.91988 50.2821 5.09682 49.3701 5.44055 48.5192C5.78429 47.6683 6.28809 46.8953 6.92318 46.2443C7.55827 45.5932 8.3122 45.077 9.14188 44.725C9.97155 44.3729 10.8607 44.1921 11.7585 44.1928H16.6784C16.6784 42.8542 16.1601 41.5704 15.2374 40.6239C14.3148 39.6774 13.0634 39.1456 11.7585 39.1456Z" fill="#F8FF31"/>
<path d="M21.6181 44.1924H16.6982V67.9997H21.6181V44.1924Z" fill="#F8FF31"/>
<path d="M74.0049 62.7917H69.0851V51.1833C69.0824 49.3239 68.361 47.5416 67.0789 46.2273C65.7968 44.913 64.0589 44.1742 62.2464 44.1729H58.9648V39.1257H62.2464C65.3633 39.1284 68.3519 40.3994 70.5563 42.66C72.7608 44.9205 74.001 47.9858 74.0049 51.1833V62.7917Z" fill="#F8FF31"/>
</g>
<defs>
<clipPath id="clip0_1914_178">
<rect width="74" height="68" fill="white"/>
</clipPath>
</defs>
</svg>
