<?xml version="1.0" encoding="utf-8"?>
<!-- Generator: Adobe Illustrator 24.0.2, SVG Export Plug-In . SVG Version: 6.00 Build 0)  -->
<svg version="1.1" id="Layer_1" xmlns="http://www.w3.org/2000/svg" xmlns:xlink="http://www.w3.org/1999/xlink" x="0px" y="0px"
	 viewBox="0 0 30 30" style="enable-background:new 0 0 30 30;" xml:space="preserve">
<style type="text/css">
	.st0{fill:#FFFFFF;}
</style>
<g>
	<rect y="10" class="st0" width="7" height="20"/>
	<path class="st0" d="M3.5,7C5.4,7,7,5.4,7,3.5S5.4,0,3.5,0C1.6,0,0,1.6,0,3.5S1.6,7,3.5,7z"/>
	<path class="st0" d="M30,19c0-5.4-1.2-9-7.5-9c-3,0-5.1,1.1-5.9,2.7h-0.1V10H11v20h5.8v-9.9c0-2.6,0.5-5.1,3.7-5.1
		c3.2,0,3.4,3,3.4,5.3V30h6V19z"/>
</g>
</svg>
