<svg width="74" height="68" viewBox="0 0 74 68" fill="none" xmlns="http://www.w3.org/2000/svg">
<g clip-path="url(#clip0_1914_412)">
<path d="M44.0221 60.4614C44.0221 61.268 43.7029 62.0416 43.1345 62.612C42.5662 63.1823 41.7952 63.5027 40.9915 63.5027H34.2304C33.4276 63.5012 32.6583 63.1801 32.0912 62.6099C31.5241 62.0397 31.2056 61.2671 31.2056 60.4614V58.106H26.1641V61.9849C26.1633 62.7745 26.3178 63.5566 26.6184 64.2864C26.919 65.0162 27.3598 65.6793 27.916 66.2379C28.4721 66.7966 29.1324 67.2397 29.8593 67.5421C30.5862 67.8444 31.3654 68.0001 32.1522 68.0001H43.07C44.6596 68.0001 46.1841 67.3663 47.3081 66.2382C48.4322 65.1101 49.0636 63.5802 49.0636 61.9849V58.106H44.0221V60.4614Z" fill="#2E3939"/>
<path d="M36.9972 3.58466e-05C36.3138 3.58466e-05 35.625 0.0280839 34.936 0.0786792C29.208 0.520543 23.7694 2.7842 19.4111 6.54047C15.0528 10.2967 12.0017 15.3499 10.7012 20.9657C9.4006 26.5815 9.91831 32.4671 12.1793 37.7674C14.4402 43.0676 18.3264 47.5061 23.2732 50.4379C24.2964 51.0473 25.108 51.9581 25.5978 53.0464H30.9027C30.5718 51.605 29.9549 50.2452 29.0887 49.0485C28.2225 47.8517 27.1248 46.8425 25.8612 46.081C21.845 43.6933 18.6908 40.0842 16.8556 35.7767C15.0204 31.4692 14.5995 26.687 15.6543 22.1234C16.7091 17.5598 19.1845 13.4519 22.7218 10.395C26.259 7.33802 30.6744 5.49099 35.3279 5.12146C35.8881 5.08211 36.4483 5.05956 37.0084 5.05956C41.735 5.06515 46.3337 6.60116 50.1209 9.43929C53.9081 12.2774 56.6817 16.2662 58.0294 20.8128C59.3772 25.3593 59.2271 30.221 57.6017 34.6751C55.9762 39.1293 52.9621 42.9382 49.0072 45.5358C47.7244 46.376 46.6319 47.4772 45.8002 48.7681C44.9684 50.059 44.416 51.5108 44.1787 53.0295H49.3433C49.7467 51.6929 50.6025 50.5396 51.7631 49.7689C56.6336 46.5777 60.3472 41.8934 62.3508 36.4133C64.3543 30.9331 64.5407 24.9501 62.8825 19.3549C61.2243 13.7598 57.8101 8.85162 53.148 5.36109C48.4858 1.87057 42.825 -0.0156626 37.0084 -0.0168457L36.9972 3.58466e-05Z" fill="#2E3939"/>
<path d="M33.7256 58.1058H41.5006C42.1687 58.1043 42.8091 57.8372 43.2815 57.3631C43.7539 56.889 44.0199 56.2465 44.0214 55.576V54.8114C44.0218 54.2237 44.0706 53.637 44.1672 53.0574H30.9023C31.1021 53.8857 31.2037 54.7349 31.2049 55.5871C31.2078 56.2561 31.4748 56.8968 31.9472 57.3688C32.4196 57.8407 33.059 58.1058 33.7256 58.1058Z" fill="#2E3939"/>
<path d="M30.2856 41.0495L35.9376 31.8355C36.0489 31.6573 36.1107 31.4526 36.1162 31.2423C36.1217 31.0321 36.0707 30.8241 35.9688 30.6404C35.8669 30.4566 35.7178 30.3037 35.5369 30.1975C35.356 30.0913 35.1502 30.0357 34.9406 30.0366H27.9219L36.7669 15.617C37.4684 14.4752 38.5928 13.6597 39.8932 13.3498C41.1937 13.0399 42.5636 13.2609 43.7017 13.9643L38.0494 23.1782C37.9398 23.3571 37.8798 23.5622 37.8755 23.7722C37.8712 23.9822 37.9229 24.1896 38.0251 24.3729C38.1273 24.5562 38.2761 24.7089 38.4567 24.8151C38.6373 24.9213 38.8429 24.9772 39.0522 24.9771H46.0712L37.2262 39.3912C36.8793 39.9577 36.4245 40.4501 35.8878 40.8401C35.3512 41.2301 34.7431 41.5103 34.0985 41.6643C33.4539 41.8183 32.7853 41.8433 32.1311 41.7378C31.4768 41.6324 30.8497 41.3984 30.2856 41.0495Z" fill="#2E3939"/>
</g>
<defs>
<clipPath id="clip0_1914_412">
<rect width="74" height="68" fill="white"/>
</clipPath>
</defs>
</svg>
