<svg
                  width="35"
                  height="28"
                  viewBox="0 0 35 28"
                  fill="none"
                  xmlns="http://www.w3.org/2000/svg"
                >
                  <g clip-path="url(#clip0_2110_166)">
                    <path
                      d="M35 3.31682C33.6879 3.88568 32.2969 4.25834 30.8729 4.42246C32.3739 3.54156 33.4986 2.15351 34.0375 0.516818C32.6243 1.33495 31.0812 1.91262 29.4729 2.22554C28.3895 1.09489 26.9581 0.346817 25.3999 0.0968048C23.8417 -0.153207 22.2432 0.10874 20.8512 0.842211C19.4593 1.57568 18.3512 2.73989 17.6981 4.15512C17.0449 5.57035 16.8831 7.1579 17.2375 8.67272C14.383 8.53116 11.5905 7.80107 9.04068 6.5297C6.49087 5.25834 4.24058 3.47401 2.43542 1.2922C1.5187 2.84773 1.23765 4.6885 1.64936 6.44066C2.06106 8.19282 3.13465 9.72501 4.65208 10.726C3.53154 10.6907 2.43611 10.3902 1.45833 9.85015C1.43585 11.4896 1.99207 13.086 3.03202 14.3666C4.07197 15.6472 5.53116 16.5326 7.16042 16.8717C6.10473 17.1556 4.99662 17.1949 3.92292 16.9866C4.3798 18.3926 5.27254 19.6224 6.47575 20.5032C7.67895 21.384 9.13217 21.8715 10.6313 21.8973C7.61207 24.2001 3.78992 25.2325 0 24.7691C3.28391 26.8473 7.10674 27.949 11.0104 27.9425C13.7768 27.9618 16.5179 27.4241 19.0656 26.3626C21.6133 25.3011 23.9137 23.738 25.8257 21.7694C27.7376 19.8008 29.2207 17.4682 30.184 14.9148C31.1472 12.3614 31.5702 9.64112 31.4271 6.92092C32.8224 5.93392 34.0316 4.71417 35 3.31682V3.31682Z"
                      fill="white"
                    />
                  </g>
                  <defs>
                    <clipPath id="clip0_2110_166">
                      <rect width="35" height="28" fill="white" />
                    </clipPath>
                  </defs>
                </svg>