<svg
                  width="35"
                  height="20"
                  viewBox="0 0 35 20"
                  fill="none"
                  xmlns="http://www.w3.org/2000/svg"
                >
                  <g clip-path="url(#clip0_2110_172)">
                    <path
                      d="M19.7422 9.99986C19.7422 15.2464 15.3226 19.4994 9.87124 19.4994C4.41993 19.4994 0 15.2458 0 9.99986C0 4.7539 4.41934 0.5 9.87124 0.5C15.3231 0.5 19.7422 4.75333 19.7422 9.99986ZM30.5706 9.99986C30.5706 14.9384 28.3609 18.9434 25.634 18.9434C22.907 18.9434 20.6973 14.9384 20.6973 9.99986C20.6973 5.06132 22.9067 1.05607 25.634 1.05607C28.3612 1.05607 30.5706 5.05991 30.5706 9.99986ZM35 9.99986C35 14.4236 34.2228 18.0118 33.2642 18.0118C32.3055 18.0118 31.5287 14.4233 31.5287 9.99986C31.5287 5.57642 32.3055 1.98766 33.2642 1.98766C34.2228 1.98766 35 5.57501 35 9.99986Z"
                      fill="white"
                    />
                  </g>
                  <defs>
                    <clipPath id="clip0_2110_172">
                      <rect
                        width="35"
                        height="19"
                        fill="white"
                        transform="translate(0 0.5)"
                      />
                    </clipPath>
                  </defs>
                </svg>