<svg width="70" height="70" viewBox="0 0 70 70" fill="none" xmlns="http://www.w3.org/2000/svg">
<g clip-path="url(#clip0_1914_204)">
<path d="M67.7697 39.4992L54.0388 42.6674L40.1647 34.9979L54.0388 27.3326L67.7697 30.5008L69 25.1558L57.224 22.439L61.2013 11.0149L56.0317 9.20931L51.3887 22.5318L37.2407 30.3532V14.1662L46.6446 3.66179L42.5662 0L34.5021 9.01103L26.4338 0L22.3554 3.66179L31.7635 14.1662V30.3532L17.6113 22.5318L12.9683 9.20931L7.79868 11.0149L11.776 22.439L0 25.1558L1.23026 30.5008L14.9612 27.3326L28.8353 34.9979L14.9612 42.6674L1.23026 39.4992L0 44.84L11.776 47.5568L7.79868 58.9851L12.9683 60.7907L17.6113 47.4682L31.7635 39.6426V55.8296L22.3554 66.3382L26.4338 70L34.5021 60.989L42.5662 70L46.6446 66.3382L37.2407 55.8296V39.6426L51.3887 47.4682L56.0317 60.7907L61.2013 58.9851L57.224 47.5568L69 44.84L67.7697 39.4992Z" fill="#F8FF31"/>
</g>
<defs>
<clipPath id="clip0_1914_204">
<rect width="69" height="70" fill="white"/>
</clipPath>
</defs>
</svg>
