<svg width="68" height="68" viewBox="0 0 68 68" fill="none" xmlns="http://www.w3.org/2000/svg">
<g clip-path="url(#clip0_1914_238)">
<path d="M33.9974 5.15332C40.4242 5.16152 46.6658 7.29879 51.741 11.229C56.8162 15.1593 60.437 20.6596 62.0339 26.8649C62.3811 28.1761 63.1556 29.335 64.2355 30.1596C65.3155 30.9842 66.6397 31.4279 68 31.4207C67.279 22.9267 63.3846 15.0121 57.088 9.24413C50.7914 3.4762 42.5515 0.275391 33.9999 0.275391C25.4484 0.275391 17.2086 3.4762 10.912 9.24413C4.61537 15.0121 0.721001 22.9267 0 31.4207C1.36013 31.427 2.68397 30.9831 3.76372 30.1586C4.84347 29.3341 5.61808 28.1756 5.96611 26.8649C7.56202 20.66 11.1818 15.1598 16.2561 11.2295C21.3304 7.29924 27.5713 5.16177 33.9974 5.15332Z" fill="#2E3939"/>
<path d="M33.9974 62.8413C27.572 62.8331 21.3316 60.6963 16.2574 56.7671C11.1831 52.8378 7.563 47.3388 5.96611 41.1348C5.61905 39.8232 4.84482 38.6636 3.76498 37.8381C2.68514 37.0126 1.36081 36.568 0 36.5741C0.721001 45.0681 4.61537 52.9825 10.912 58.7504C17.2086 64.5184 25.4484 67.7192 33.9999 67.7192C42.5515 67.7192 50.7914 64.5184 57.088 58.7504C63.3846 52.9825 67.279 45.0681 68 36.5741C66.639 36.5671 65.3143 37.0114 64.2343 37.837C63.1543 38.6626 62.3802 39.8227 62.0339 41.1348C60.436 47.3392 56.8148 52.8383 51.7397 56.7676C46.6647 60.6968 40.4235 62.8334 33.9974 62.8413Z" fill="#2E3939"/>
<path d="M26.796 33.9975C26.796 36.9659 24.335 39.1509 21.0521 39.1509C17.7692 39.1509 15.3032 36.9607 15.3032 33.9975C15.3032 31.0342 17.7537 28.844 21.0521 28.844C24.3505 28.844 26.796 31.0291 26.796 33.9975ZM17.3867 33.9975C17.3867 36.0176 18.8963 37.3574 21.0521 37.3574C23.208 37.3574 24.6711 36.0176 24.6711 33.9975C24.6711 31.9773 23.177 30.6374 21.0521 30.6374C18.9273 30.6374 17.3867 31.9773 17.3867 33.9975Z" fill="#2E3939"/>
<path d="M33.1392 28.9419V39.0015H31.0713V32.302H27.6177V30.7559L29.5616 30.6734C30.9058 30.6064 31.4487 30.1169 31.5624 28.9625L33.1392 28.9419Z" fill="#2E3939"/>
<path d="M46.3536 33.9975C46.3536 36.9659 43.8928 39.1509 40.6047 39.1509C37.3166 39.1509 34.8608 36.9607 34.8608 33.9975C34.8608 31.0342 37.3063 28.844 40.6047 28.844C43.9031 28.844 46.3536 31.0291 46.3536 33.9975ZM36.9443 33.9975C36.9443 36.0176 38.454 37.3574 40.6047 37.3574C42.7554 37.3574 44.2236 36.0176 44.2236 33.9975C44.2236 31.9773 42.7295 30.6374 40.6047 30.6374C38.4798 30.6374 36.9702 31.9773 36.9702 33.9975H36.9443Z" fill="#2E3939"/>
<path d="M52.6919 28.9419V39.0015H50.6239V32.302H47.1704V30.7559L49.1143 30.6734C50.4533 30.6064 51.0014 30.1169 51.11 28.9625L52.6919 28.9419Z" fill="#2E3939"/>
<path d="M33.9974 51.7461C31.2271 51.7464 28.4926 51.1216 25.999 49.9185C23.5054 48.7154 21.3174 46.9653 19.5991 44.7992C19.1087 44.1982 18.4887 43.715 17.7852 43.3858C17.0817 43.0565 16.3128 42.8896 15.5356 42.8975H13.0229C14.8489 46.9176 17.7988 50.3279 21.5192 52.7198C25.2397 55.1117 29.5728 56.3838 33.9999 56.3838C38.427 56.3838 42.7603 55.1117 46.4807 52.7198C50.2011 50.3279 53.151 46.9176 54.977 42.8975H52.4798C51.7035 42.8904 50.9356 43.0577 50.233 43.3869C49.5304 43.7161 48.9112 44.1988 48.4214 44.7992C46.6998 46.9681 44.5076 48.7199 42.0094 49.9231C39.5111 51.1263 36.7719 51.7496 33.9974 51.7461Z" fill="#2E3939"/>
<path d="M33.9974 15.0894C36.7684 15.089 39.5036 15.7138 41.998 16.9169C44.4924 18.12 46.6814 19.8701 48.4008 22.0363C48.8907 22.6366 49.5097 23.1194 50.2123 23.4486C50.9149 23.7778 51.6828 23.9451 52.4591 23.938H54.977C53.151 19.9178 50.2011 16.5076 46.4807 14.1157C42.7603 11.7238 38.427 10.4517 33.9999 10.4517C29.5728 10.4517 25.2397 11.7238 21.5192 14.1157C17.7988 16.5076 14.8489 19.9178 13.0229 23.938H15.5356C16.3128 23.9459 17.0817 23.7789 17.7852 23.4497C18.4887 23.1205 19.1087 22.6373 19.5991 22.0363C21.3174 19.8702 23.5054 18.1201 25.999 16.917C28.4926 15.7139 31.2271 15.0891 33.9974 15.0894Z" fill="#2E3939"/>
</g>
<defs>
<clipPath id="clip0_1914_238">
<rect width="68" height="68" fill="white"/>
</clipPath>
</defs>
</svg>
