<svg
                  width="35"
                  height="28"
                  viewBox="0 0 35 28"
                  fill="none"
                  xmlns="http://www.w3.org/2000/svg"
                >
                  <g clip-path="url(#clip0_2110_168)">
                    <path
                      d="M29.6271 2.73994C27.3593 1.68338 24.9645 0.931982 22.5039 0.504905C22.4817 0.500199 22.4585 0.503022 22.438 0.512939C22.4175 0.522856 22.4008 0.539316 22.3905 0.559783C22.0641 1.15782 21.768 1.77225 21.5032 2.40069C18.8516 1.99163 16.1541 1.99163 13.5025 2.40069C13.2366 1.7702 12.9354 1.15556 12.6004 0.559783C12.59 0.539316 12.5733 0.522856 12.5529 0.512939C12.5324 0.503022 12.5092 0.500199 12.487 0.504905C10.0266 0.933261 7.63203 1.68461 5.36375 2.73994C5.35327 2.7428 5.34347 2.74782 5.33499 2.75469C5.32651 2.76155 5.31952 2.77012 5.31446 2.77985C0.779247 9.63961 -0.463006 16.3297 0.143332 22.94C0.148608 22.9736 0.166216 23.0039 0.192628 23.0249C2.83254 25.0107 5.78617 26.5289 8.92784 27.5149C8.94995 27.5217 8.97361 27.5216 8.99564 27.5145C9.01767 27.5073 9.03701 27.4936 9.05108 27.475C9.73016 26.5398 10.3304 25.5485 10.8454 24.5116C10.8527 24.4977 10.857 24.4823 10.8579 24.4666C10.8588 24.4509 10.8564 24.4352 10.8507 24.4206C10.8451 24.4059 10.8365 24.3926 10.8254 24.3816C10.8142 24.3707 10.8009 24.3622 10.7863 24.3569C9.84415 23.9889 8.93116 23.5486 8.0553 23.0398C8.04005 23.0293 8.02757 23.0152 8.01895 22.9986C8.01033 22.9821 8.00582 22.9637 8.00582 22.945C8.00582 22.9264 8.01033 22.908 8.01895 22.8914C8.02757 22.8749 8.04005 22.8608 8.0553 22.8502L8.59756 22.4212C8.61416 22.4094 8.63396 22.4031 8.65425 22.4031C8.67454 22.4031 8.69434 22.4094 8.71094 22.4212C11.4629 23.728 14.4655 24.4054 17.5053 24.4054C20.5451 24.4054 23.5477 23.728 26.2997 22.4212C26.3165 22.41 26.3362 22.4041 26.3564 22.4041C26.3765 22.4041 26.3962 22.41 26.4131 22.4212C26.5905 22.5709 26.7729 22.7155 26.9553 22.8552C26.9706 22.8658 26.983 22.8799 26.9917 22.8964C27.0003 22.9129 27.0048 22.9313 27.0048 22.95C27.0048 22.9687 27.0003 22.9871 26.9917 23.0036C26.983 23.0201 26.9706 23.0343 26.9553 23.0448C26.0829 23.5589 25.1694 23.9978 24.2243 24.3569C24.21 24.3634 24.1971 24.3726 24.1864 24.3842C24.1756 24.3958 24.1673 24.4093 24.1617 24.4242C24.1562 24.4391 24.1537 24.4549 24.1543 24.4707C24.1549 24.4866 24.1586 24.5022 24.1652 24.5165C24.6917 25.5395 25.2897 26.5232 25.9546 27.46C25.9687 27.4786 25.988 27.4924 26.01 27.4995C26.0321 27.5066 26.0557 27.5068 26.0778 27.4999C29.2256 26.5177 32.1847 24.9993 34.8278 23.0099C34.8417 23.0007 34.853 22.9881 34.8608 22.9732C34.8685 22.9584 34.8725 22.9419 34.8722 22.9251C35.5943 15.799 33.7492 8.64868 29.6764 2.78983C29.6725 2.77825 29.6661 2.76772 29.6575 2.75907C29.649 2.75042 29.6386 2.74388 29.6271 2.73994V2.73994ZM11.6983 18.919C9.97291 18.919 8.55319 17.3126 8.55319 15.3469C8.55319 13.3813 9.94333 11.7699 11.6983 11.7699C13.4532 11.7699 14.868 13.3863 14.8433 15.3419C14.8187 17.2976 13.4483 18.919 11.6983 18.919ZM23.3271 18.919C21.6018 18.919 20.1821 17.3126 20.1821 15.3469C20.1821 13.3813 21.5722 11.7699 23.3271 11.7699C25.0821 11.7699 26.4969 13.3863 26.4722 15.3419C26.4476 17.2976 25.0919 18.919 23.3271 18.919Z"
                      fill="white"
                    />
                  </g>
                  <defs>
                    <clipPath id="clip0_2110_168">
                      <rect
                        width="35"
                        height="27"
                        fill="white"
                        transform="translate(0 0.5)"
                      />
                    </clipPath>
                  </defs>
                </svg>