<svg width="217" height="48" viewBox="0 0 217 48" fill="none" xmlns="http://www.w3.org/2000/svg">
<path d="M198.295 14.0327H191.784L195.195 5.60418C195.861 3.95909 197.059 2.54038 198.628 1.5386C200.197 0.536822 202.063 -5.99769e-05 203.974 5.02551e-09L198.295 14.0327Z" fill="#F8FF31"/>
<path d="M209.658 14.0327H216.17L212.758 5.60418C212.092 3.95879 210.893 2.54 209.323 1.53824C207.753 0.53648 205.887 -0.000290737 203.975 1.1814e-07L209.658 14.0327Z" fill="#F8FF31"/>
<path d="M6.56019 47.4809H0.0307617V20.7895C0.0307617 19.3833 1.27314 18.2444 2.80703 18.2444H20.065C27.3058 18.2444 32.1921 21.421 32.1921 27.448C32.1921 31.9273 29.3499 34.9003 24.8176 36.0408L32.9469 47.4841H25.4405L17.9342 36.6118H6.56019V47.4841V47.4809ZM19.7093 31.5996C23.5301 31.5996 25.706 30.0933 25.706 27.4862C25.706 24.8791 23.5301 23.3329 19.7093 23.3329H6.56019V31.5996H19.7093Z" fill="white"/>
<path d="M68.978 18.2444V23.4156H44.5469V29.931H66.4464V35.0625H44.5469V42.3112H68.978V47.4825H38.106V20.7895C38.106 19.3833 39.3483 18.2444 40.8822 18.2444H68.978Z" fill="white"/>
<path d="M97.4385 19.6427L112.75 47.481H105.688L102 40.6809H83.965L80.2344 47.481H73.2607L88.5719 19.6427C89.0438 18.7853 90.0034 18.2429 91.0514 18.2429H94.9625C96.0105 18.2429 96.9701 18.7837 97.442 19.6427H97.4385ZM86.7187 35.5908H99.1997L92.9809 24.1475L86.717 35.5908H86.7187Z" fill="white"/>
<path d="M132.677 17.7964C141.029 17.7964 147.157 21.2577 149.6 27L143.959 29.6055C142.137 25.492 138.318 23.0488 132.721 23.0488C125.747 23.0488 120.505 26.9586 120.505 32.8632C120.505 38.7678 125.747 42.6776 132.721 42.6776C138.317 42.6776 142.137 40.2344 143.959 36.1209L149.6 38.7264C147.157 44.4687 141.027 47.9284 132.677 47.9284C121.883 47.9284 113.844 41.5355 113.844 32.8616C113.844 24.1877 121.885 17.7964 132.677 17.7964Z" fill="white"/>
<path d="M173.875 23.4156V47.4809H167.3V23.4156H153.219V18.2444H187.956V23.4156H173.875Z" fill="white"/>
</svg>
