<svg width="49" height="49" viewBox="0 0 49 49" fill="none" xmlns="http://www.w3.org/2000/svg">
<path d="M3.13205 5.01254C4.1716 5.01254 5.01313 4.17147 5.01313 3.13249C5.01313 2.09351 4.1716 1.25244 3.13205 1.25244C2.09251 1.25244 1.25098 2.09351 1.25098 3.13249C1.25098 4.17147 2.09251 5.01254 3.13205 5.01254Z" fill="#A5E9D6"/>
<path d="M13.7983 5.64366C15.1861 5.64366 16.311 4.51938 16.311 3.13238C16.311 1.74537 15.1861 0.621094 13.7983 0.621094C12.4105 0.621094 11.2856 1.74537 11.2856 3.13238C11.2856 4.51938 12.4105 5.64366 13.7983 5.64366Z" fill="#A5E9D6"/>
<path d="M24.4712 6.26115C26.2003 6.26115 27.6034 4.8605 27.6034 3.13058C27.6034 1.40066 26.202 0 24.4712 0C22.7403 0 21.3389 1.40066 21.3389 3.13058C21.3389 4.8605 22.7403 6.26115 24.4712 6.26115Z" fill="#06C290"/>
<path d="M35.143 5.64366C36.5308 5.64366 37.6557 4.51938 37.6557 3.13238C37.6557 1.74537 36.5308 0.621094 35.143 0.621094C33.7553 0.621094 32.6304 1.74537 32.6304 3.13238C32.6304 4.51938 33.7553 5.64366 35.143 5.64366Z" fill="#A5E9D6"/>
<path d="M45.8098 5.01254C46.8493 5.01254 47.6909 4.17147 47.6909 3.13249C47.6909 2.09351 46.8493 1.25244 45.8098 1.25244C44.7702 1.25244 43.9287 2.09351 43.9287 3.13249C43.9287 4.17147 44.7702 5.01254 45.8098 5.01254Z" fill="#A5E9D6"/>
<path d="M3.13326 15.6822C4.52102 15.6822 5.64592 14.558 5.64592 13.171C5.64592 11.7839 4.52102 10.6597 3.13326 10.6597C1.7455 10.6597 0.620605 11.7839 0.620605 13.171C0.620605 14.558 1.7455 15.6822 3.13326 15.6822Z" fill="#A5E9D6"/>
<path d="M13.7983 15.6822C15.1861 15.6822 16.311 14.558 16.311 13.171C16.311 11.7839 15.1861 10.6597 13.7983 10.6597C12.4105 10.6597 11.2856 11.7839 11.2856 13.171C11.2856 14.558 12.4105 15.6822 13.7983 15.6822Z" fill="#A5E9D6"/>
<path d="M24.4712 16.3017C26.2003 16.3017 27.6034 14.901 27.6034 13.1711C27.6034 11.4412 26.202 10.0405 24.4712 10.0405C22.7403 10.0405 21.3389 11.4412 21.3389 13.1711C21.3389 14.901 22.7403 16.3017 24.4712 16.3017Z" fill="#06C290"/>
<path d="M35.143 15.6822C36.5308 15.6822 37.6557 14.558 37.6557 13.171C37.6557 11.7839 36.5308 10.6597 35.143 10.6597C33.7553 10.6597 32.6304 11.7839 32.6304 13.171C32.6304 14.558 33.7553 15.6822 35.143 15.6822Z" fill="#A5E9D6"/>
<path d="M45.81 15.6822C47.1978 15.6822 48.3227 14.558 48.3227 13.171C48.3227 11.7839 47.1978 10.6597 45.81 10.6597C44.4223 10.6597 43.2974 11.7839 43.2974 13.171C43.2974 14.558 44.4223 15.6822 45.81 15.6822Z" fill="#A5E9D6"/>
<path d="M3.13228 27.5932C4.86144 27.5932 6.26457 26.1925 6.26457 24.4626C6.26457 22.7327 4.86315 21.332 3.13228 21.332C1.40142 21.332 0 22.7327 0 24.4626C0 26.1925 1.40142 27.5932 3.13228 27.5932Z" fill="#06C290"/>
<path d="M13.7993 27.5932C15.5284 27.5932 16.9316 26.1925 16.9316 24.4626C16.9316 22.7327 15.5301 21.332 13.7993 21.332C12.0684 21.332 10.667 22.7327 10.667 24.4626C10.667 26.1925 12.0684 27.5932 13.7993 27.5932Z" fill="#06C290"/>
<path d="M24.4712 27.5932C26.2003 27.5932 27.6034 26.1925 27.6034 24.4626C27.6034 22.7327 26.202 21.332 24.4712 21.332C22.7403 21.332 21.3389 22.7327 21.3389 24.4626C21.3389 26.1925 22.7403 27.5932 24.4712 27.5932Z" fill="#F8FF31"/>
<path d="M35.143 27.5932C36.8722 27.5932 38.2753 26.1925 38.2753 24.4626C38.2753 22.7327 36.8739 21.332 35.143 21.332C33.4122 21.332 32.0107 22.7327 32.0107 24.4626C32.0107 26.1925 33.4122 27.5932 35.143 27.5932Z" fill="#F8FF31"/>
<path d="M45.8105 27.5932C47.5397 27.5932 48.9428 26.1925 48.9428 24.4626C48.9428 22.7327 47.5397 21.332 45.8105 21.332C44.0814 21.332 42.6782 22.7327 42.6782 24.4626C42.6782 26.1925 44.0796 27.5932 45.8105 27.5932Z" fill="#F8FF31"/>
<path d="M3.13326 38.2628C4.52102 38.2628 5.64592 37.1385 5.64592 35.7515C5.64592 34.3645 4.52102 33.2402 3.13326 33.2402C1.7455 33.2402 0.620605 34.3645 0.620605 35.7515C0.620605 37.1385 1.7455 38.2628 3.13326 38.2628Z" fill="#A5E9D6"/>
<path d="M13.7983 38.2628C15.1861 38.2628 16.311 37.1385 16.311 35.7515C16.311 34.3645 15.1861 33.2402 13.7983 33.2402C12.4105 33.2402 11.2856 34.3645 11.2856 35.7515C11.2856 37.1385 12.4105 38.2628 13.7983 38.2628Z" fill="#A5E9D6"/>
<path d="M24.4712 38.8822C26.2003 38.8822 27.6034 37.4816 27.6034 35.7517C27.6034 34.0217 26.202 32.6211 24.4712 32.6211C22.7403 32.6211 21.3389 34.0217 21.3389 35.7517C21.3389 37.4816 22.7403 38.8822 24.4712 38.8822Z" fill="#F8FF31"/>
<path d="M35.143 38.2628C36.5308 38.2628 37.6557 37.1385 37.6557 35.7515C37.6557 34.3645 36.5308 33.2402 35.143 33.2402C33.7553 33.2402 32.6304 34.3645 32.6304 35.7515C32.6304 37.1385 33.7553 38.2628 35.143 38.2628Z" fill="#A5E9D6"/>
<path d="M45.81 38.2628C47.1978 38.2628 48.3227 37.1385 48.3227 35.7515C48.3227 34.3645 47.1978 33.2402 45.81 33.2402C44.4223 33.2402 43.2974 34.3645 43.2974 35.7515C43.2974 37.1385 44.4223 38.2628 45.81 38.2628Z" fill="#A5E9D6"/>
<path d="M3.13205 47.6703C4.1716 47.6703 5.01313 46.8292 5.01313 45.7902C5.01313 44.7512 4.1716 43.9102 3.13205 43.9102C2.09251 43.9102 1.25098 44.7512 1.25098 45.7902C1.25098 46.8292 2.09251 47.6703 3.13205 47.6703Z" fill="#A5E9D6"/>
<path d="M13.7983 48.3014C15.1861 48.3014 16.311 47.1771 16.311 45.7901C16.311 44.4031 15.1861 43.2788 13.7983 43.2788C12.4105 43.2788 11.2856 44.4031 11.2856 45.7901C11.2856 47.1771 12.4105 48.3014 13.7983 48.3014Z" fill="#A5E9D6"/>
<path d="M24.4712 48.9208C26.2003 48.9208 27.6034 47.5185 27.6034 45.7902C27.6034 44.062 26.202 42.6597 24.4712 42.6597C22.7403 42.6597 21.3389 44.062 21.3389 45.7902C21.3389 47.5185 22.7403 48.9208 24.4712 48.9208Z" fill="#F8FF31"/>
<path d="M35.143 48.3014C36.5308 48.3014 37.6557 47.1771 37.6557 45.7901C37.6557 44.4031 36.5308 43.2788 35.143 43.2788C33.7553 43.2788 32.6304 44.4031 32.6304 45.7901C32.6304 47.1771 33.7553 48.3014 35.143 48.3014Z" fill="#A5E9D6"/>
<path d="M45.8098 47.6703C46.8493 47.6703 47.6909 46.8292 47.6909 45.7902C47.6909 44.7512 46.8493 43.9102 45.8098 43.9102C44.7702 43.9102 43.9287 44.7512 43.9287 45.7902C43.9287 46.8292 44.7702 47.6703 45.8098 47.6703Z" fill="#A5E9D6"/>
</svg>
