<svg width="249" height="53" viewBox="0 0 249 53" fill="none" xmlns="http://www.w3.org/2000/svg">
<path d="M164.603 11.4397V15.9044C161.013 12.9154 156.063 10.9524 150.022 10.9524C137.13 10.9524 127.5 19.4391 127.5 31.5677C127.5 43.6963 137.13 52.183 150.022 52.183C156.091 52.183 161.03 50.2284 164.603 47.238V51.4493H170.827V11.4397H164.603ZM149.137 46.3414C140.542 46.3414 133.574 39.7133 133.574 31.5385C133.574 23.3636 140.542 16.7355 149.137 16.7355C157.733 16.7355 164.701 23.3636 164.701 31.5385C164.701 39.7133 157.733 46.3414 149.137 46.3414Z" fill="white"/>
<path d="M2.55601 15.6968C3.40431 15.6968 4.09102 15.0104 4.09102 14.1626C4.09102 13.3148 3.40431 12.6284 2.55601 12.6284C1.70771 12.6284 1.021 13.3148 1.021 14.1626C1.021 15.0104 1.70771 15.6968 2.55601 15.6968Z" fill="#A5E9D6"/>
<path d="M11.2599 16.2121C12.3923 16.2121 13.3103 15.2946 13.3103 14.1628C13.3103 13.031 12.3923 12.1135 11.2599 12.1135C10.1274 12.1135 9.20947 13.031 9.20947 14.1628C9.20947 15.2946 10.1274 16.2121 11.2599 16.2121Z" fill="#A5E9D6"/>
<path d="M19.9691 16.7157C21.3802 16.7157 22.5252 15.5727 22.5252 14.1611C22.5252 12.7494 21.3816 11.6064 19.9691 11.6064C18.5567 11.6064 17.4131 12.7494 17.4131 14.1611C17.4131 15.5727 18.5567 16.7157 19.9691 16.7157Z" fill="#06C290"/>
<path d="M28.6778 16.2121C29.8103 16.2121 30.7282 15.2946 30.7282 14.1628C30.7282 13.031 29.8103 12.1135 28.6778 12.1135C27.5454 12.1135 26.6274 13.031 26.6274 14.1628C26.6274 15.2946 27.5454 16.2121 28.6778 16.2121Z" fill="#A5E9D6"/>
<path d="M37.3822 15.6968C38.2305 15.6968 38.9172 15.0104 38.9172 14.1626C38.9172 13.3148 38.2305 12.6284 37.3822 12.6284C36.5339 12.6284 35.8472 13.3148 35.8472 14.1626C35.8472 15.0104 36.5339 15.6968 37.3822 15.6968Z" fill="#A5E9D6"/>
<path d="M2.55675 24.4035C3.6892 24.4035 4.60714 23.486 4.60714 22.3542C4.60714 21.2224 3.6892 20.3049 2.55675 20.3049C1.42429 20.3049 0.506348 21.2224 0.506348 22.3542C0.506348 23.486 1.42429 24.4035 2.55675 24.4035Z" fill="#A5E9D6"/>
<path d="M11.2599 24.4035C12.3923 24.4035 13.3103 23.486 13.3103 22.3542C13.3103 21.2224 12.3923 20.3049 11.2599 20.3049C10.1274 20.3049 9.20947 21.2224 9.20947 22.3542C9.20947 23.486 10.1274 24.4035 11.2599 24.4035Z" fill="#A5E9D6"/>
<path d="M19.9691 24.9088C21.3802 24.9088 22.5252 23.7659 22.5252 22.3542C22.5252 20.9425 21.3816 19.7996 19.9691 19.7996C18.5567 19.7996 17.4131 20.9425 17.4131 22.3542C17.4131 23.7659 18.5567 24.9088 19.9691 24.9088Z" fill="#06C290"/>
<path d="M28.6778 24.4035C29.8103 24.4035 30.7282 23.486 30.7282 22.3542C30.7282 21.2224 29.8103 20.3049 28.6778 20.3049C27.5454 20.3049 26.6274 21.2224 26.6274 22.3542C26.6274 23.486 27.5454 24.4035 28.6778 24.4035Z" fill="#A5E9D6"/>
<path d="M37.3824 24.4035C38.5149 24.4035 39.4328 23.486 39.4328 22.3542C39.4328 21.2224 38.5149 20.3049 37.3824 20.3049C36.25 20.3049 35.332 21.2224 35.332 22.3542C35.332 23.486 36.25 24.4035 37.3824 24.4035Z" fill="#A5E9D6"/>
<path d="M2.55603 34.1234C3.96708 34.1234 5.11207 32.9805 5.11207 31.5688C5.11207 30.1571 3.96847 29.0142 2.55603 29.0142C1.1436 29.0142 0 30.1571 0 31.5688C0 32.9805 1.1436 34.1234 2.55603 34.1234Z" fill="#06C290"/>
<path d="M11.2606 34.1234C12.6717 34.1234 13.8167 32.9805 13.8167 31.5688C13.8167 30.1571 12.6731 29.0142 11.2606 29.0142C9.84819 29.0142 8.70459 30.1571 8.70459 31.5688C8.70459 32.9805 9.84819 34.1234 11.2606 34.1234Z" fill="#06C290"/>
<path d="M19.9691 34.1234C21.3802 34.1234 22.5252 32.9805 22.5252 31.5688C22.5252 30.1571 21.3816 29.0142 19.9691 29.0142C18.5567 29.0142 17.4131 30.1571 17.4131 31.5688C17.4131 32.9805 18.5567 34.1234 19.9691 34.1234Z" fill="#F8FF31"/>
<path d="M28.6776 34.1234C30.0887 34.1234 31.2337 32.9805 31.2337 31.5688C31.2337 30.1571 30.0901 29.0142 28.6776 29.0142C27.2652 29.0142 26.1216 30.1571 26.1216 31.5688C26.1216 32.9805 27.2652 34.1234 28.6776 34.1234Z" fill="#F8FF31"/>
<path d="M37.3827 34.1234C38.7937 34.1234 39.9387 32.9805 39.9387 31.5688C39.9387 30.1571 38.7937 29.0142 37.3827 29.0142C35.9717 29.0142 34.8267 30.1571 34.8267 31.5688C34.8267 32.9805 35.9703 34.1234 37.3827 34.1234Z" fill="#F8FF31"/>
<path d="M2.55675 42.8302C3.6892 42.8302 4.60714 41.9128 4.60714 40.781C4.60714 39.6491 3.6892 38.7317 2.55675 38.7317C1.42429 38.7317 0.506348 39.6491 0.506348 40.781C0.506348 41.9128 1.42429 42.8302 2.55675 42.8302Z" fill="#A5E9D6"/>
<path d="M11.2599 42.8302C12.3923 42.8302 13.3103 41.9128 13.3103 40.781C13.3103 39.6491 12.3923 38.7317 11.2599 38.7317C10.1274 38.7317 9.20947 39.6491 9.20947 40.781C9.20947 41.9128 10.1274 42.8302 11.2599 42.8302Z" fill="#A5E9D6"/>
<path d="M19.9691 43.3356C21.3802 43.3356 22.5252 42.1926 22.5252 40.781C22.5252 39.3693 21.3816 38.2263 19.9691 38.2263C18.5567 38.2263 17.4131 39.3693 17.4131 40.781C17.4131 42.1926 18.5567 43.3356 19.9691 43.3356Z" fill="#F8FF31"/>
<path d="M28.6778 42.8302C29.8103 42.8302 30.7282 41.9128 30.7282 40.781C30.7282 39.6491 29.8103 38.7317 28.6778 38.7317C27.5454 38.7317 26.6274 39.6491 26.6274 40.781C26.6274 41.9128 27.5454 42.8302 28.6778 42.8302Z" fill="#A5E9D6"/>
<path d="M37.3824 42.8302C38.5149 42.8302 39.4328 41.9128 39.4328 40.781C39.4328 39.6491 38.5149 38.7317 37.3824 38.7317C36.25 38.7317 35.332 39.6491 35.332 40.781C35.332 41.9128 36.25 42.8302 37.3824 42.8302Z" fill="#A5E9D6"/>
<path d="M2.55601 50.5068C3.40431 50.5068 4.09102 49.8205 4.09102 48.9727C4.09102 48.1248 3.40431 47.4385 2.55601 47.4385C1.70771 47.4385 1.021 48.1248 1.021 48.9727C1.021 49.8205 1.70771 50.5068 2.55601 50.5068Z" fill="#A5E9D6"/>
<path d="M11.2599 51.0217C12.3923 51.0217 13.3103 50.1042 13.3103 48.9724C13.3103 47.8405 12.3923 46.9231 11.2599 46.9231C10.1274 46.9231 9.20947 47.8405 9.20947 48.9724C9.20947 50.1042 10.1274 51.0217 11.2599 51.0217Z" fill="#A5E9D6"/>
<path d="M19.9691 51.5272C21.3802 51.5272 22.5252 50.3829 22.5252 48.9726C22.5252 47.5623 21.3816 46.418 19.9691 46.418C18.5567 46.418 17.4131 47.5623 17.4131 48.9726C17.4131 50.3829 18.5567 51.5272 19.9691 51.5272Z" fill="#F8FF31"/>
<path d="M28.6778 51.0217C29.8103 51.0217 30.7282 50.1042 30.7282 48.9724C30.7282 47.8405 29.8103 46.9231 28.6778 46.9231C27.5454 46.9231 26.6274 47.8405 26.6274 48.9724C26.6274 50.1042 27.5454 51.0217 28.6778 51.0217Z" fill="#A5E9D6"/>
<path d="M37.3822 50.5068C38.2305 50.5068 38.9172 49.8205 38.9172 48.9727C38.9172 48.1248 38.2305 47.4385 37.3822 47.4385C36.5339 47.4385 35.8472 48.1248 35.8472 48.9727C35.8472 49.8205 36.5339 50.5068 37.3822 50.5068Z" fill="#A5E9D6"/>
<path fill-rule="evenodd" clip-rule="evenodd" d="M53.9247 18.6508L53.9387 51.527H60.1818V20.831C60.1818 19.0866 61.597 17.6721 63.3424 17.6721H78.4014V11.4658H61.1095C57.1396 11.4658 53.9219 14.6845 53.9233 18.6522L53.9247 18.6508Z" fill="#152C24"/>
<path fill-rule="evenodd" clip-rule="evenodd" d="M198.375 46.2676C189.351 46.2676 182.451 40.5068 182.451 31.5648C182.451 22.6229 189.351 16.7883 198.375 16.7883C205.688 16.7883 210.965 20.9203 212.866 26.2398L218.776 24.2114C216.422 17.089 209.144 10.9509 198.453 10.9509C185.562 10.9509 175.931 19.4376 175.931 31.5662C175.931 43.6949 185.562 52.1815 198.453 52.1815C209.147 52.1815 216.351 46.12 218.701 38.9963L218.689 38.9893L212.823 36.9498C210.884 42.2066 205.63 46.2718 198.377 46.2718L198.375 46.2676Z" fill="white"/>
<path fill-rule="evenodd" clip-rule="evenodd" d="M102.21 46.2534C93.4901 46.2534 86.9698 41.1762 86.1354 33.2923H123.292V30.6402C123.292 19.578 115.175 10.9368 102.21 10.9368C89.2444 10.9368 79.6875 19.8063 79.6875 31.5521C79.6875 43.2979 89.0912 52.1674 102.21 52.1674C112.903 52.1674 120.332 46.3328 122.685 39.6615L122.356 39.4903L116.854 37.576C114.788 42.6867 109.496 46.2548 102.208 46.2548L102.21 46.2534ZM101.905 16.6962C110.779 16.6962 116.16 22.6853 116.616 28.0633H86.4363C87.9546 20.9395 94.2478 16.6962 101.905 16.6962Z" fill="white"/>
<path fill-rule="evenodd" clip-rule="evenodd" d="M53.9247 18.6508L53.9387 51.527H60.1818V20.831C60.1818 19.0866 61.597 17.6721 63.3424 17.6721H78.4014V11.4658H61.1095C57.1396 11.4658 53.9219 14.6845 53.9233 18.6522L53.9247 18.6508Z" fill="white"/>
<path fill-rule="evenodd" clip-rule="evenodd" d="M248.999 51.5271V45.3208H237.9C236.155 45.3208 234.74 43.9064 234.74 42.162V16.5961H249V11.4116H234.74V0H228.505L228.499 11.4116L219.196 11.2724V16.4569L228.496 16.5961V44.3171C228.496 48.2987 231.727 51.5271 235.71 51.5271H249H248.999Z" fill="white"/>
</svg>

